<svg width="273" height="480" viewBox="0 0 273 480" fill="none" xmlns="http://www.w3.org/2000/svg">
<path d="M92 28L138 55L135.5 480L92 454V28Z" fill="#B04304"/>
<path d="M48 225.5L1.5 194.5V266L48 290.5V225.5Z" fill="#B04304"/>
<path d="M137 480V55L183 28.5V453.5L137 480Z" fill="#53C68C"/>
<path d="M183 147V213L272.5 161.5V94.5L183 147Z" fill="#53C68C"/>
<path d="M48 225.5V291.5L137.5 240V173L48 225.5Z" fill="#53C68C"/>
<path d="M183 28.5L138 55L92.5 28.5L138 0.5L183 28.5Z" fill="#FF5D01"/>
<path d="M0 195L48 225L136.5 173.5L91.5 146L0 195Z" fill="#FF5D01"/>
<path d="M183.5 145.5V102.5L232.5 75L272.5 95L183.5 145.5Z" fill="#FF5D01"/>
</svg>
